<svg xmlns="http://www.w3.org/2000/svg" xmlns:xlink="http://www.w3.org/1999/xlink" contentStyleType="text/css" data-diagram-type="DESCRIPTION" height="633px" preserveAspectRatio="none" style="width:1329px;height:633px;background:#FFFFFF;" version="1.1" viewBox="0 0 1329 633" width="1329px" zoomAndPan="magnify"><?plantuml 1.2026.5?><defs/><g><!--cluster ???-??????????--><g class="cluster" data-qualified-name="...-.........." data-source-line="21" id="ent0002"><rect fill="none" height="612" rx="2.5" ry="2.5" style="stroke:#181818;stroke-width:1;" width="1159.77" x="156.1" y="7"/><text fill="#000000" font-family="sans-serif" font-size="14" font-weight="700" lengthAdjust="spacing" textLength="137.5322" x="667.2189" y="21.9951">Веб-приложение</text></g><!--cluster ?????--><g class="cluster" data-qualified-name="...-................" data-source-line="23" id="ent0003"><rect fill="none" height="103" rx="2.5" ry="2.5" style="stroke:#181818;stroke-width:1;" width="805.6" x="186.42" y="50"/><text fill="#000000" font-family="sans-serif" font-size="14" font-weight="700" lengthAdjust="spacing" textLength="48.4736" x="564.9832" y="64.9951">Карта</text></g><!--cluster ???????--><g class="cluster" data-qualified-name="...-.................." data-source-line="29" id="ent0007"><rect fill="none" height="103" rx="2.5" ry="2.5" style="stroke:#181818;stroke-width:1;" width="809.74" x="181.25" y="177"/><text fill="#000000" font-family="sans-serif" font-size="14" font-weight="700" lengthAdjust="spacing" textLength="71.9688" x="550.1356" y="191.9951">Объекты</text></g><!--cluster ????????--><g class="cluster" data-qualified-name="...-..................." data-source-line="35" id="ent0011"><rect fill="none" height="164" rx="2.5" ry="2.5" style="stroke:#181818;stroke-width:1;" width="524.18" x="474.12" y="431"/><text fill="#000000" font-family="sans-serif" font-size="14" font-weight="700" lengthAdjust="spacing" textLength="88.1904" x="692.1148" y="445.9951">Маршруты</text></g><!--cluster ???????--><g class="cluster" data-qualified-name="...-.................." data-source-line="41" id="ent0015"><rect fill="none" height="103" rx="2.5" ry="2.5" style="stroke:#181818;stroke-width:1;" width="813.62" x="180.1" y="304"/><text fill="#000000" font-family="sans-serif" font-size="14" font-weight="700" lengthAdjust="spacing" textLength="66.623" x="553.5985" y="318.9951">Галерея</text></g><!--entity Goal--><g class="entity" data-qualified-name="...-...........Goal" data-source-line="47" id="ent0019"><ellipse cx="1172.5846" cy="297.9969" fill="#FFFFFF" rx="127.2846" ry="27.8569" style="stroke:#000000;stroke-width:0.5;"/><text fill="#000000" font-family="sans-serif" font-size="14" lengthAdjust="spacing" textLength="179.0674" x="1083.0509" y="293.5539">Получение информации</text><text fill="#000000" font-family="sans-serif" font-size="14" lengthAdjust="spacing" textLength="195.4805" x="1074.8443" y="309.8507">о достопримечательности</text></g><!--entity UC1--><g class="entity" data-qualified-name="...-.................UC1" data-source-line="24" id="ent0004"><ellipse cx="278.5366" cy="111.0033" fill="#FFFFFF" rx="76.1166" ry="17.6233" style="stroke:#000000;stroke-width:0.5;"/><text fill="#000000" font-family="sans-serif" font-size="14" lengthAdjust="spacing" textLength="121.4268" x="217.8232" y="115.6518">Просмотр карты</text></g><!--entity UC2--><g class="entity" data-qualified-name="...-.................UC2" data-source-line="25" id="ent0005"><ellipse cx="582.5841" cy="109.0039" fill="#FFFFFF" rx="79.4641" ry="24.1339" style="stroke:#000000;stroke-width:0.5;"/><text fill="#000000" font-family="sans-serif" font-size="14" lengthAdjust="spacing" textLength="117.9268" x="523.6207" y="108.3452">Поиск объектов</text><text fill="#000000" font-family="sans-serif" font-size="14" lengthAdjust="spacing" textLength="64.873" x="550.1476" y="124.642">на карте</text></g><!--entity UC3--><g class="entity" data-qualified-name="...-.................UC3" data-source-line="26" id="ent0006"><ellipse cx="893.2424" cy="110.9965" fill="#FFFFFF" rx="82.7824" ry="18.9565" style="stroke:#000000;stroke-width:0.5;"/><text fill="#000000" font-family="sans-serif" font-size="14" lengthAdjust="spacing" textLength="137.1904" x="824.6472" y="115.6449">Просмотр объекта</text></g><!--entity UC4--><g class="entity" data-qualified-name="...-...................UC4" data-source-line="30" id="ent0008"><ellipse cx="278.5387" cy="237.9977" fill="#FFFFFF" rx="81.2887" ry="18.6577" style="stroke:#000000;stroke-width:0.5;"/><text fill="#000000" font-family="sans-serif" font-size="14" lengthAdjust="spacing" textLength="133.7041" x="211.6867" y="242.6462">Каталог объектов</text></g><!--entity UC5--><g class="entity" data-qualified-name="...-...................UC5" data-source-line="31" id="ent0009"><ellipse cx="582.5783" cy="236.9973" fill="#FFFFFF" rx="77.1383" ry="25.1973" style="stroke:#000000;stroke-width:0.5;"/><text fill="#000000" font-family="sans-serif" font-size="14" lengthAdjust="spacing" textLength="91.0205" x="537.068" y="232.2712">Фильтрация</text><text fill="#000000" font-family="sans-serif" font-size="14" lengthAdjust="spacing" textLength="108.8623" x="528.1471" y="248.5681">по категориям</text></g><!--entity UC6--><g class="entity" data-qualified-name="...-...................UC6" data-source-line="32" id="ent0010"><ellipse cx="893.2374" cy="237.9995" fill="#FFFFFF" rx="81.7474" ry="18.7495" style="stroke:#000000;stroke-width:0.5;"/><text fill="#000000" font-family="sans-serif" font-size="14" lengthAdjust="spacing" textLength="134.7773" x="825.8488" y="242.6479">Карточка объекта</text></g><!--entity UC7--><g class="entity" data-qualified-name="...-....................UC7" data-source-line="36" id="ent0012"><ellipse cx="582.5753" cy="487.0011" fill="#FFFFFF" rx="92.4553" ry="20.8911" style="stroke:#000000;stroke-width:0.5;"/><text fill="#000000" font-family="sans-serif" font-size="14" lengthAdjust="spacing" textLength="159.2773" x="502.9366" y="491.6495">Просмотр маршрутов</text></g><!--entity UC8--><g class="entity" data-qualified-name="...-....................UC8" data-source-line="37" id="ent0013"><ellipse cx="893.2431" cy="560.0006" fill="#FFFFFF" rx="82.7031" ry="18.9406" style="stroke:#000000;stroke-width:0.5;"/><text fill="#000000" font-family="sans-serif" font-size="14" lengthAdjust="spacing" textLength="137.0059" x="824.7401" y="564.649">Маршрут на карте</text></g><!--entity UC9--><g class="entity" data-qualified-name="...-....................UC9" data-source-line="38" id="ent0014"><ellipse cx="893.2389" cy="486.0018" fill="#FFFFFF" rx="89.0589" ry="20.2118" style="stroke:#000000;stroke-width:0.5;"/><text fill="#000000" font-family="sans-serif" font-size="14" lengthAdjust="spacing" textLength="151.6074" x="817.4352" y="490.6502">Описание маршрута</text></g><!--entity UC10--><g class="entity" data-qualified-name="...-...................UC10" data-source-line="42" id="ent0016"><ellipse cx="278.5388" cy="357.9978" fill="#FFFFFF" rx="82.4388" ry="18.8878" style="stroke:#000000;stroke-width:0.5;"/><text fill="#000000" font-family="sans-serif" font-size="14" lengthAdjust="spacing" textLength="136.3906" x="210.3435" y="362.6462">Просмотр галереи</text></g><!--entity UC11--><g class="entity" data-qualified-name="...-...................UC11" data-source-line="43" id="ent0017"><ellipse cx="582.5821" cy="361.0004" fill="#FFFFFF" rx="96.6021" ry="21.7204" style="stroke:#000000;stroke-width:0.5;"/><text fill="#000000" font-family="sans-serif" font-size="14" lengthAdjust="spacing" textLength="168.54" x="498.3121" y="365.6489">Просмотр фотографии</text></g><!--entity UC12--><g class="entity" data-qualified-name="...-...................UC12" data-source-line="44" id="ent0018"><ellipse cx="893.2413" cy="357.9963" fill="#FFFFFF" rx="84.4813" ry="19.2963" style="stroke:#000000;stroke-width:0.5;"/><text fill="#000000" font-family="sans-serif" font-size="14" lengthAdjust="spacing" textLength="141.1279" x="822.6773" y="362.6447">Переход к объекту</text></g><!--entity User--><g class="entity" data-qualified-name="User" data-source-line="19" id="ent0001"><ellipse cx="57.5498" cy="288.35" fill="#FFFFFF" rx="8" ry="8" style="stroke:#000000;stroke-width:0.5;"/><path d="M57.5498,296.35 L57.5498,323.35 M44.5498,304.35 L70.5498,304.35 M57.5498,323.35 L44.5498,338.35 M57.5498,323.35 L70.5498,338.35" fill="none" style="stroke:#000000;stroke-width:0.5;"/><text fill="#000000" font-family="sans-serif" font-size="14" lengthAdjust="spacing" textLength="103.0996" x="6" y="352.8451">Пользователь</text></g><!--link User to UC1--><g class="link" data-entity-1="ent0001" data-entity-2="ent0004" data-link-type="dependency" data-source-line="50" id="lnk20"><path d="M81.69,279.49 C98.18,253.98 121.99,220.78 148.1,196 C178.03,167.59 214.2397,145.119 241.9297,129.729" fill="none" id="User-to-UC1" style="stroke:#000000;stroke-width:1;"/><polygon fill="#000000" points="246.3,127.3,236.4902,128.176,241.9297,129.729,240.3766,135.1685,246.3,127.3" style="stroke:#000000;stroke-width:1;stroke-linejoin:miter;stroke-miterlimit:10;"/></g><!--link User to UC4--><g class="link" data-entity-1="ent0001" data-entity-2="ent0008" data-link-type="dependency" data-source-line="51" id="lnk21"><path d="M109.34,299.45 C147.12,285.64 193.4438,268.7263 229.3438,255.6063" fill="none" id="User-to-UC4" style="stroke:#000000;stroke-width:1;"/><polygon fill="#000000" points="234.04,253.89,224.2138,253.2223,229.3438,255.6063,226.9598,260.7363,234.04,253.89" style="stroke:#000000;stroke-width:1;stroke-linejoin:miter;stroke-miterlimit:10;"/></g><!--link User to UC7--><g class="link" data-entity-1="ent0001" data-entity-2="ent0012" data-link-type="dependency" data-source-line="52" id="lnk22"><path d="M87.79,356.33 C103.67,374.48 124.8,394.8 148.1,407 C256.57,463.8 393.7869,480.5878 485.1869,485.3878" fill="none" id="User-to-UC7" style="stroke:#000000;stroke-width:1;"/><polygon fill="#000000" points="490.18,485.65,481.4022,481.1835,485.1869,485.3878,480.9826,489.1725,490.18,485.65" style="stroke:#000000;stroke-width:1;stroke-linejoin:miter;stroke-miterlimit:10;"/></g><!--link User to UC10--><g class="link" data-entity-1="ent0001" data-entity-2="ent0016" data-link-type="dependency" data-source-line="53" id="lnk23"><path d="M109.34,327.28 C140.17,332.91 174.8914,339.2514 207.9514,345.2914" fill="none" id="User-to-UC10" style="stroke:#000000;stroke-width:1;"/><polygon fill="#000000" points="212.87,346.19,204.7354,340.6376,207.9514,345.2914,203.2977,348.5074,212.87,346.19" style="stroke:#000000;stroke-width:1;stroke-linejoin:miter;stroke-miterlimit:10;"/></g><!--link UC1 to UC2--><g class="link" data-entity-1="ent0004" data-entity-2="ent0005" data-link-type="dependency" data-source-line="55" id="lnk24"><path d="M354.98,110.5 C400.06,110.2 452.2401,109.8529 497.8901,109.5529" fill="none" id="UC1-to-UC2" style="stroke:#000000;stroke-width:1;stroke-dasharray:7,7;"/><polygon fill="#000000" points="502.89,109.52,493.8639,105.5792,497.8901,109.5529,493.9165,113.5791,502.89,109.52" style="stroke:#000000;stroke-width:1;stroke-linejoin:miter;stroke-miterlimit:10;"/><text fill="#000000" font-family="sans-serif" font-size="13" lengthAdjust="spacing" textLength="63.0068" x="391.98" y="106.0669">«include»</text></g><!--link UC2 to UC3--><g class="link" data-entity-1="ent0005" data-entity-2="ent0006" data-link-type="dependency" data-source-line="56" id="lnk25"><path d="M662.27,109.51 C707.54,109.8 759.3601,110.1373 805.1901,110.4373" fill="none" id="UC2-to-UC3" style="stroke:#000000;stroke-width:1;stroke-dasharray:7,7;"/><polygon fill="#000000" points="810.19,110.47,801.2164,106.4112,805.1901,110.4373,801.164,114.411,810.19,110.47" style="stroke:#000000;stroke-width:1;stroke-linejoin:miter;stroke-miterlimit:10;"/><text fill="#000000" font-family="sans-serif" font-size="13" lengthAdjust="spacing" textLength="63.0068" x="710.18" y="106.0669">«include»</text></g><!--link UC4 to UC5--><g class="link" data-entity-1="ent0008" data-entity-2="ent0009" data-link-type="dependency" data-source-line="58" id="lnk26"><path d="M360.08,237.73 C405.08,237.58 455.84,237.4169 500.16,237.2669" fill="none" id="UC4-to-UC5" style="stroke:#000000;stroke-width:1;stroke-dasharray:7,7;"/><polygon fill="#000000" points="505.16,237.25,496.1465,233.2805,500.16,237.2669,496.1736,241.2804,505.16,237.25" style="stroke:#000000;stroke-width:1;stroke-linejoin:miter;stroke-miterlimit:10;"/><text fill="#000000" font-family="sans-serif" font-size="13" lengthAdjust="spacing" textLength="63.0068" x="391.98" y="234.0669">«include»</text></g><!--link UC5 to UC6--><g class="link" data-entity-1="ent0009" data-entity-2="ent0010" data-link-type="dependency" data-source-line="59" id="lnk27"><path d="M659.88,237.25 C705.85,237.4 759.35,237.574 806.15,237.724" fill="none" id="UC5-to-UC6" style="stroke:#000000;stroke-width:1;stroke-dasharray:7,7;"/><polygon fill="#000000" points="811.15,237.74,802.1629,233.7112,806.15,237.724,802.1372,241.7111,811.15,237.74" style="stroke:#000000;stroke-width:1;stroke-linejoin:miter;stroke-miterlimit:10;"/><text fill="#000000" font-family="sans-serif" font-size="13" lengthAdjust="spacing" textLength="63.0068" x="710.18" y="234.0669">«include»</text></g><!--link UC7 to UC8--><g class="link" data-entity-1="ent0012" data-entity-2="ent0013" data-link-type="dependency" data-source-line="61" id="lnk28"><path d="M647.91,502.21 C702.94,515.23 776.5841,532.6498 829.6341,545.1898" fill="none" id="UC7-to-UC8" style="stroke:#000000;stroke-width:1;stroke-dasharray:7,7;"/><polygon fill="#000000" points="834.5,546.34,826.6615,540.3769,829.6341,545.1898,824.8212,548.1624,834.5,546.34" style="stroke:#000000;stroke-width:1;stroke-linejoin:miter;stroke-miterlimit:10;"/><text fill="#000000" font-family="sans-serif" font-size="13" lengthAdjust="spacing" textLength="63.0068" x="710.18" y="513.0669">«include»</text></g><!--link UC7 to UC9--><g class="link" data-entity-1="ent0012" data-entity-2="ent0014" data-link-type="dependency" data-source-line="62" id="lnk29"><path d="M675.35,486.7 C715.96,486.57 758.52,486.4362 798.74,486.3062" fill="none" id="UC7-to-UC9" style="stroke:#000000;stroke-width:1;stroke-dasharray:7,7;"/><polygon fill="#000000" points="803.74,486.29,794.7271,482.3191,798.74,486.3062,794.753,490.3191,803.74,486.29" style="stroke:#000000;stroke-width:1;stroke-linejoin:miter;stroke-miterlimit:10;"/><text fill="#000000" font-family="sans-serif" font-size="13" lengthAdjust="spacing" textLength="63.0068" x="710.18" y="483.0669">«include»</text></g><!--link UC10 to UC11--><g class="link" data-entity-1="ent0016" data-entity-2="ent0017" data-link-type="dependency" data-source-line="64" id="lnk30"><path d="M361.28,358.81 C399.62,359.19 440.5802,359.6 480.5802,360" fill="none" id="UC10-to-UC11" style="stroke:#000000;stroke-width:1;stroke-dasharray:7,7;"/><polygon fill="#000000" points="485.58,360.05,476.6204,355.9602,480.5802,360,476.5405,363.9598,485.58,360.05" style="stroke:#000000;stroke-width:1;stroke-linejoin:miter;stroke-miterlimit:10;"/><text fill="#000000" font-family="sans-serif" font-size="13" lengthAdjust="spacing" textLength="63.0068" x="391.98" y="356.0669">«include»</text></g><!--link UC11 to UC12--><g class="link" data-entity-1="ent0017" data-entity-2="ent0018" data-link-type="dependency" data-source-line="65" id="lnk31"><path d="M679.55,360.07 C720.78,359.67 763.5402,359.2477 803.3302,358.8677" fill="none" id="UC11-to-UC12" style="stroke:#000000;stroke-width:1;stroke-dasharray:7,7;"/><polygon fill="#000000" points="808.33,358.82,799.2922,354.9061,803.3302,358.8677,799.3686,362.9058,808.33,358.82" style="stroke:#000000;stroke-width:1;stroke-linejoin:miter;stroke-miterlimit:10;"/><text fill="#000000" font-family="sans-serif" font-size="13" lengthAdjust="spacing" textLength="63.0068" x="710.18" y="356.0669">«include»</text></g><!--link UC3 to Goal--><g class="link" data-entity-1="ent0006" data-entity-2="ent0019" data-link-type="dependency" data-source-line="67" id="lnk32"><path d="M921.34,129.27 C970.54,162.45 1070.6246,229.9243 1127.8146,268.4943" fill="none" id="UC3-to-Goal" style="stroke:#000000;stroke-width:1;"/><polygon fill="#000000" points="1131.96,271.29,1126.7349,262.9414,1127.8146,268.4943,1122.2618,269.574,1131.96,271.29" style="stroke:#000000;stroke-width:1;stroke-linejoin:miter;stroke-miterlimit:10;"/></g><!--link UC6 to Goal--><g class="link" data-entity-1="ent0010" data-entity-2="ent0019" data-link-type="dependency" data-source-line="68" id="lnk33"><path d="M954.08,250.95 C991.02,258.94 1034.2529,268.2936 1075.8429,277.2836" fill="none" id="UC6-to-Goal" style="stroke:#000000;stroke-width:1;"/><polygon fill="#000000" points="1080.73,278.34,1072.7783,272.5288,1075.8429,277.2836,1071.0881,280.3482,1080.73,278.34" style="stroke:#000000;stroke-width:1;stroke-linejoin:miter;stroke-miterlimit:10;"/></g><!--link UC8 to Goal--><g class="link" data-entity-1="ent0013" data-entity-2="ent0019" data-link-type="dependency" data-source-line="69" id="lnk34"><path d="M956.55,547.52 C973.72,542.15 991.63,534.58 1006.3,524 C1080.4,470.52 1132.586,378.1881 1156.256,330.5281" fill="none" id="UC8-to-Goal" style="stroke:#000000;stroke-width:1;"/><polygon fill="#000000" points="1158.48,326.05,1150.8942,332.3314,1156.256,330.5281,1158.0592,335.8899,1158.48,326.05" style="stroke:#000000;stroke-width:1;stroke-linejoin:miter;stroke-miterlimit:10;"/></g><!--link UC12 to Goal--><g class="link" data-entity-1="ent0018" data-entity-2="ent0019" data-link-type="dependency" data-source-line="70" id="lnk35"><path d="M955.79,344.68 C992.5,336.74 1034.8831,327.5776 1075.8231,318.7176" fill="none" id="UC12-to-Goal" style="stroke:#000000;stroke-width:1;"/><polygon fill="#000000" points="1080.71,317.66,1071.0676,315.6542,1075.8231,318.7176,1072.7597,323.4732,1080.71,317.66" style="stroke:#000000;stroke-width:1;stroke-linejoin:miter;stroke-miterlimit:10;"/></g><?plantuml-src jLJDRjf04BxxALRSYJ0_WLGHXoAr3r3rrilMR8mLnuvi8rHLaTma3LKRAL9xYwhqqWTmIcWG4F8Aks_KcLqR5cmaBhM4yUpCD_DzixFhigE8H3u97BiNaQuJC2joVCymmcF7EwK1FI5XZtRzWUFPv8Yw8TCyfzGwfZPx4trm6K4azMnN3w1Mv0Vaeq7WUGd1Tk3tlMx7Ts5rq7CYfZn-q6M1MdtlGfXSVULxaRvsfkNjXyoY8ViFcMaG-8CqxtgCeSIK-2--u3DnpH_X_mzFn3aVerqYD2HlGnOOnh8L4FqTlFTb_YnYFk4pWFo5XIVu7fVIClALjX80jv0oXgH9viSd4mpL8T52VE9pU9-BcF2fYXVV586EMGI2kXC0JGbyt8klG64A9O3_Em_89Ciio4fcgUvIMi-LfC2Q19uLARjRXIFR8dMtif-9RDGeHpOjKIy0_iRkYcla1IckGEqDI7lc2oKDzsW4j6Dqy7cQgB650JPY8OQ8B1QvlrtaJud_0h-BxJ9pdPphA4rgim2yLe4KRr-h07S7xS0XIDJuRHRDj1rir_P3ximOo8_5pOxAHYiCdsGZMja1AIxn0-T0RkabS5xYYsTS4ViCa0UoCUhY8eDMD-Mjdv8Pz6AOdL02hoV98vRDka8EC5OmL0_8LT9J9tiEbOUhom3mogyel_QfYrS8NW-aN6xBOwePTTreheLL0DKnoTuUMbNoWXmUEfxbzhkitJPmHNbg6nvmrLDN8mTgf9xzFAYPkbevKEOvo8FCIkeppHpCpBYRrJom9bNAxY0RpMZf1a0pwny0?></g></svg>