<svg xmlns="http://www.w3.org/2000/svg" xmlns:xlink="http://www.w3.org/1999/xlink" contentStyleType="text/css" data-diagram-type="DESCRIPTION" height="442px" preserveAspectRatio="none" style="width:867px;height:442px;background:#FFFFFF;" version="1.1" viewBox="0 0 867 442" width="867px" zoomAndPan="magnify"><?plantuml 1.2026.5?><defs/><g><!--cluster ?????????? ????? (HTML/CSS/JS)--><g class="cluster" data-qualified-name=".......... ..... .HTML.CSS.JS." data-source-line="3" id="ent0001"><path d="M8.5,6 L271.4736,6 A3.75,3.75 0 0 1 273.9736,8.5 L280.9736,28.2969 L280.1,28.2969 A2.5,2.5 0 0 1 282.6,30.7969 L282.6,424.5 A2.5,2.5 0 0 1 280.1,427 L8.5,427 A2.5,2.5 0 0 1 6,424.5 L6,8.5 A2.5,2.5 0 0 1 8.5,6" fill="none" style="stroke:#000000;stroke-width:1.5;"/><line style="stroke:#000000;stroke-width:1.5;" x1="6" x2="280.9736" y1="28.2969" y2="28.2969"/><text fill="#000000" font-family="sans-serif" font-size="14" font-weight="700" lengthAdjust="spacing" textLength="261.9736" x="10" y="20.9951">Клиентская часть (HTML/CSS/JS)</text></g><!--cluster ????????? ????? (Node.js + Express)--><g class="cluster" data-qualified-name="......... ..... .Node.js . Express." data-source-line="11" id="ent0007"><path d="M313.1,6 L609.7064,6 A3.75,3.75 0 0 1 612.2064,8.5 L619.2064,28.2969 L695.21,28.2969 A2.5,2.5 0 0 1 697.71,30.7969 L697.71,343.5 A2.5,2.5 0 0 1 695.21,346 L313.1,346 A2.5,2.5 0 0 1 310.6,343.5 L310.6,8.5 A2.5,2.5 0 0 1 313.1,6" fill="none" style="stroke:#000000;stroke-width:1.5;"/><line style="stroke:#000000;stroke-width:1.5;" x1="310.6" x2="619.2064" y1="28.2969" y2="28.2969"/><text fill="#000000" font-family="sans-serif" font-size="14" font-weight="700" lengthAdjust="spacing" textLength="295.6064" x="314.6" y="20.9951">Серверная часть (Node.js + Express)</text></g><!--entity main--><g class="entity" data-qualified-name=".......... ..... .HTML.CSS.JS..main" data-source-line="4" id="ent0002"><rect fill="#F1F1F1" height="46.2969" rx="2.5" ry="2.5" style="stroke:#181818;stroke-width:0.5;" width="174.5996" x="57" y="364.85"/><rect fill="#F1F1F1" height="10" style="stroke:#181818;stroke-width:0.5;" width="15" x="211.5996" y="369.85"/><rect fill="#F1F1F1" height="2" style="stroke:#181818;stroke-width:0.5;" width="4" x="209.5996" y="371.85"/><rect fill="#F1F1F1" height="2" style="stroke:#181818;stroke-width:0.5;" width="4" x="209.5996" y="375.85"/><text fill="#000000" font-family="sans-serif" font-size="14" lengthAdjust="spacing" textLength="134.5996" x="72" y="397.8451">Главная страница</text></g><!--entity places--><g class="entity" data-qualified-name=".......... ..... .HTML.CSS.JS..places" data-source-line="5" id="ent0003"><rect fill="#F1F1F1" height="46.2969" rx="2.5" ry="2.5" style="stroke:#181818;stroke-width:0.5;" width="173.7041" x="57.45" y="283.85"/><rect fill="#F1F1F1" height="10" style="stroke:#181818;stroke-width:0.5;" width="15" x="211.1541" y="288.85"/><rect fill="#F1F1F1" height="2" style="stroke:#181818;stroke-width:0.5;" width="4" x="209.1541" y="290.85"/><rect fill="#F1F1F1" height="2" style="stroke:#181818;stroke-width:0.5;" width="4" x="209.1541" y="294.85"/><text fill="#000000" font-family="sans-serif" font-size="14" lengthAdjust="spacing" textLength="133.7041" x="72.45" y="316.8451">Каталог объектов</text></g><!--entity routes--><g class="entity" data-qualified-name=".......... ..... .HTML.CSS.JS..routes" data-source-line="6" id="ent0004"><rect fill="#F1F1F1" height="46.2969" rx="2.5" ry="2.5" style="stroke:#181818;stroke-width:0.5;" width="118.7363" x="84.93" y="202.85"/><rect fill="#F1F1F1" height="10" style="stroke:#181818;stroke-width:0.5;" width="15" x="183.6663" y="207.85"/><rect fill="#F1F1F1" height="2" style="stroke:#181818;stroke-width:0.5;" width="4" x="181.6663" y="209.85"/><rect fill="#F1F1F1" height="2" style="stroke:#181818;stroke-width:0.5;" width="4" x="181.6663" y="213.85"/><text fill="#000000" font-family="sans-serif" font-size="14" lengthAdjust="spacing" textLength="78.7363" x="99.93" y="235.8451">Маршруты</text></g><!--entity photos--><g class="entity" data-qualified-name=".......... ..... .HTML.CSS.JS..photos" data-source-line="7" id="ent0005"><rect fill="#F1F1F1" height="46.2969" rx="2.5" ry="2.5" style="stroke:#181818;stroke-width:0.5;" width="136.7559" x="75.92" y="121.85"/><rect fill="#F1F1F1" height="10" style="stroke:#181818;stroke-width:0.5;" width="15" x="192.6759" y="126.85"/><rect fill="#F1F1F1" height="2" style="stroke:#181818;stroke-width:0.5;" width="4" x="190.6759" y="128.85"/><rect fill="#F1F1F1" height="2" style="stroke:#181818;stroke-width:0.5;" width="4" x="190.6759" y="132.85"/><text fill="#000000" font-family="sans-serif" font-size="14" lengthAdjust="spacing" textLength="96.7559" x="90.92" y="154.8451">Фотогалерея</text></g><!--entity admin--><g class="entity" data-qualified-name=".......... ..... .HTML.CSS.JS..admin" data-source-line="8" id="ent0006"><rect fill="#F1F1F1" height="46.2969" rx="2.5" ry="2.5" style="stroke:#181818;stroke-width:0.5;" width="145.8203" x="71.39" y="40.85"/><rect fill="#F1F1F1" height="10" style="stroke:#181818;stroke-width:0.5;" width="15" x="197.2103" y="45.85"/><rect fill="#F1F1F1" height="2" style="stroke:#181818;stroke-width:0.5;" width="4" x="195.2103" y="47.85"/><rect fill="#F1F1F1" height="2" style="stroke:#181818;stroke-width:0.5;" width="4" x="195.2103" y="51.85"/><text fill="#000000" font-family="sans-serif" font-size="14" lengthAdjust="spacing" textLength="105.8203" x="86.39" y="73.8451">Админ-панель</text></g><!--entity api--><g class="entity" data-qualified-name="......... ..... .Node.js . Express..api" data-source-line="12" id="ent0008"><rect fill="#F1F1F1" height="46.2969" rx="2.5" ry="2.5" style="stroke:#181818;stroke-width:0.5;" width="102.6104" x="326.6" y="202.85"/><rect fill="#F1F1F1" height="10" style="stroke:#181818;stroke-width:0.5;" width="15" x="409.2104" y="207.85"/><rect fill="#F1F1F1" height="2" style="stroke:#181818;stroke-width:0.5;" width="4" x="407.2104" y="209.85"/><rect fill="#F1F1F1" height="2" style="stroke:#181818;stroke-width:0.5;" width="4" x="407.2104" y="213.85"/><text fill="#000000" font-family="sans-serif" font-size="14" lengthAdjust="spacing" textLength="62.6104" x="341.6" y="235.8451">REST API</text></g><!--entity placeModule--><g class="entity" data-qualified-name="......... ..... .Node.js . Express..placeModule" data-source-line="13" id="ent0009"><rect fill="#F1F1F1" height="46.2969" rx="2.5" ry="2.5" style="stroke:#181818;stroke-width:0.5;" width="169.3906" x="500.77" y="283.85"/><rect fill="#F1F1F1" height="10" style="stroke:#181818;stroke-width:0.5;" width="15" x="650.1606" y="288.85"/><rect fill="#F1F1F1" height="2" style="stroke:#181818;stroke-width:0.5;" width="4" x="648.1606" y="290.85"/><rect fill="#F1F1F1" height="2" style="stroke:#181818;stroke-width:0.5;" width="4" x="648.1606" y="294.85"/><text fill="#000000" font-family="sans-serif" font-size="14" lengthAdjust="spacing" textLength="129.3906" x="515.77" y="316.8451">Модуль объектов</text></g><!--entity catModule--><g class="entity" data-qualified-name="......... ..... .Node.js . Express..catModule" data-source-line="14" id="ent0010"><rect fill="#F1F1F1" height="46.2969" rx="2.5" ry="2.5" style="stroke:#181818;stroke-width:0.5;" width="177.0674" x="496.93" y="202.85"/><rect fill="#F1F1F1" height="10" style="stroke:#181818;stroke-width:0.5;" width="15" x="653.9974" y="207.85"/><rect fill="#F1F1F1" height="2" style="stroke:#181818;stroke-width:0.5;" width="4" x="651.9974" y="209.85"/><rect fill="#F1F1F1" height="2" style="stroke:#181818;stroke-width:0.5;" width="4" x="651.9974" y="213.85"/><text fill="#000000" font-family="sans-serif" font-size="14" lengthAdjust="spacing" textLength="137.0674" x="511.93" y="235.8451">Модуль категорий</text></g><!--entity routeModule--><g class="entity" data-qualified-name="......... ..... .Node.js . Express..routeModule" data-source-line="15" id="ent0011"><rect fill="#F1F1F1" height="46.2969" rx="2.5" ry="2.5" style="stroke:#181818;stroke-width:0.5;" width="183.2402" x="493.84" y="121.85"/><rect fill="#F1F1F1" height="10" style="stroke:#181818;stroke-width:0.5;" width="15" x="657.0802" y="126.85"/><rect fill="#F1F1F1" height="2" style="stroke:#181818;stroke-width:0.5;" width="4" x="655.0802" y="128.85"/><rect fill="#F1F1F1" height="2" style="stroke:#181818;stroke-width:0.5;" width="4" x="655.0802" y="132.85"/><text fill="#000000" font-family="sans-serif" font-size="14" lengthAdjust="spacing" textLength="143.2402" x="508.84" y="154.8451">Модуль маршрутов</text></g><!--entity photoModule--><g class="entity" data-qualified-name="......... ..... .Node.js . Express..photoModule" data-source-line="16" id="ent0012"><rect fill="#F1F1F1" height="46.2969" rx="2.5" ry="2.5" style="stroke:#181818;stroke-width:0.5;" width="192.5029" x="489.21" y="40.85"/><rect fill="#F1F1F1" height="10" style="stroke:#181818;stroke-width:0.5;" width="15" x="661.7129" y="45.85"/><rect fill="#F1F1F1" height="2" style="stroke:#181818;stroke-width:0.5;" width="4" x="659.7129" y="47.85"/><rect fill="#F1F1F1" height="2" style="stroke:#181818;stroke-width:0.5;" width="4" x="659.7129" y="51.85"/><text fill="#000000" font-family="sans-serif" font-size="14" lengthAdjust="spacing" textLength="152.5029" x="504.21" y="73.8451">Модуль фотографий</text></g><!--entity db--><g class="entity" data-qualified-name="db" data-source-line="19" id="ent0013"><path d="M741.71,173.35 C741.71,163.35 792.0865,163.35 792.0865,163.35 C792.0865,163.35 842.4629,163.35 842.4629,173.35 L842.4629,198.6469 C842.4629,208.6469 792.0865,208.6469 792.0865,208.6469 C792.0865,208.6469 741.71,208.6469 741.71,198.6469 L741.71,173.35" fill="#F1F1F1" style="stroke:#181818;stroke-width:0.5;"/><path d="M741.71,173.35 C741.71,183.35 792.0865,183.35 792.0865,183.35 C792.0865,183.35 842.4629,183.35 842.4629,173.35" fill="none" style="stroke:#181818;stroke-width:0.5;"/><text fill="#000000" font-family="sans-serif" font-size="14" lengthAdjust="spacing" textLength="80.7529" x="751.71" y="200.3451">PostgreSQL</text></g><!--link main to api--><g class="link" data-entity-1="ent0002" data-entity-2="ent0008" data-link-type="dependency" data-source-line="21" id="lnk14"><path d="M231.85,374.55 C252.34,368.65 273.25,360.17 290.6,348 C326.7,322.67 350.7255,281.6727 364.2555,253.9727" fill="none" id="main-to-api" style="stroke:#181818;stroke-width:1;"/><polygon fill="#181818" points="366.45,249.48,358.9058,255.8113,364.2555,253.9727,366.0942,259.3224,366.45,249.48" style="stroke:#181818;stroke-width:1;stroke-linejoin:miter;stroke-miterlimit:10;"/></g><!--link places to api--><g class="link" data-entity-1="ent0003" data-entity-2="ent0008" data-link-type="dependency" data-source-line="22" id="lnk15"><path d="M231.38,285.98 C251.05,280.44 271.72,274.02 290.6,267 C304.13,261.97 313.9156,257.7694 326.8956,251.5894" fill="none" id="places-to-api" style="stroke:#181818;stroke-width:1;"/><polygon fill="#181818" points="331.41,249.44,321.5645,249.6974,326.8956,251.5894,325.0035,256.9205,331.41,249.44" style="stroke:#181818;stroke-width:1;stroke-linejoin:miter;stroke-miterlimit:10;"/></g><!--link routes to api--><g class="link" data-entity-1="ent0004" data-entity-2="ent0008" data-link-type="dependency" data-source-line="23" id="lnk16"><path d="M204.04,226 C241.84,226 285.44,226 321.47,226" fill="none" id="routes-to-api" style="stroke:#181818;stroke-width:1;"/><polygon fill="#181818" points="326.47,226,317.47,222,321.47,226,317.47,230,326.47,226" style="stroke:#181818;stroke-width:1;stroke-linejoin:miter;stroke-miterlimit:10;"/></g><!--link photos to api--><g class="link" data-entity-1="ent0005" data-entity-2="ent0008" data-link-type="dependency" data-source-line="24" id="lnk17"><path d="M212.99,161.01 C237.71,167.54 265.71,175.74 290.6,185 C304.13,190.03 313.9156,194.2306 326.8956,200.4106" fill="none" id="photos-to-api" style="stroke:#181818;stroke-width:1;"/><polygon fill="#181818" points="331.41,202.56,325.0035,195.0795,326.8956,200.4106,321.5645,202.3026,331.41,202.56" style="stroke:#181818;stroke-width:1;stroke-linejoin:miter;stroke-miterlimit:10;"/></g><!--link admin to api--><g class="link" data-entity-1="ent0006" data-entity-2="ent0008" data-link-type="dependency" data-source-line="25" id="lnk18"><path d="M217.55,73.72 C242.33,79.58 269.18,88.97 290.6,104 C326.7,129.33 350.7255,170.3273 364.2555,198.0273" fill="none" id="admin-to-api" style="stroke:#181818;stroke-width:1;"/><polygon fill="#181818" points="366.45,202.52,366.0942,192.6776,364.2555,198.0273,358.9058,196.1887,366.45,202.52" style="stroke:#181818;stroke-width:1;stroke-linejoin:miter;stroke-miterlimit:10;"/></g><!--link api to placeModule--><g class="link" data-entity-1="ent0008" data-entity-2="ent0009" data-link-type="dependency" data-source-line="27" id="lnk19"><path d="M429.45,245.92 C458.22,257.25 489.7678,269.6878 519.9578,281.5778" fill="none" id="api-to-placeModule" style="stroke:#181818;stroke-width:1;"/><polygon fill="#181818" points="524.61,283.41,517.7018,276.3902,519.9578,281.5778,514.7703,283.8338,524.61,283.41" style="stroke:#181818;stroke-width:1;stroke-linejoin:miter;stroke-miterlimit:10;"/></g><!--link api to catModule--><g class="link" data-entity-1="ent0008" data-entity-2="ent0010" data-link-type="dependency" data-source-line="28" id="lnk20"><path d="M429.45,226 C449.78,226 468.82,226 491.83,226" fill="none" id="api-to-catModule" style="stroke:#181818;stroke-width:1;"/><polygon fill="#181818" points="496.83,226,487.83,222,491.83,226,487.83,230,496.83,226" style="stroke:#181818;stroke-width:1;stroke-linejoin:miter;stroke-miterlimit:10;"/></g><!--link api to routeModule--><g class="link" data-entity-1="ent0008" data-entity-2="ent0011" data-link-type="dependency" data-source-line="29" id="lnk21"><path d="M429.45,206.08 C458.22,194.75 489.7678,182.3122 519.9578,170.4222" fill="none" id="api-to-routeModule" style="stroke:#181818;stroke-width:1;"/><polygon fill="#181818" points="524.61,168.59,514.7703,168.1662,519.9578,170.4222,517.7018,175.6098,524.61,168.59" style="stroke:#181818;stroke-width:1;stroke-linejoin:miter;stroke-miterlimit:10;"/></g><!--link api to photoModule--><g class="link" data-entity-1="ent0008" data-entity-2="ent0012" data-link-type="dependency" data-source-line="30" id="lnk22"><path d="M395.17,202.5 C414.8,175.61 450.07,131.74 489.21,104 C497.92,97.83 503.2121,94.5331 513.1321,89.7731" fill="none" id="api-to-photoModule" style="stroke:#181818;stroke-width:1;"/><polygon fill="#181818" points="517.64,87.61,507.7953,87.8972,513.1321,89.7731,511.2562,95.1098,517.64,87.61" style="stroke:#181818;stroke-width:1;stroke-linejoin:miter;stroke-miterlimit:10;"/></g><!--link placeModule to db--><g class="link" data-entity-1="ent0009" data-entity-2="ent0013" data-link-type="dependency" data-source-line="32" id="lnk23"><path d="M670.64,283.94 C682.8,279.15 694.86,273.53 705.71,267 C731.45,251.52 752.4492,230.839 768.5092,212.859" fill="none" id="placeModule-to-db" style="stroke:#181818;stroke-width:1;"/><polygon fill="#181818" points="771.84,209.13,762.8613,213.1776,768.5092,212.859,768.8277,218.5069,771.84,209.13" style="stroke:#181818;stroke-width:1;stroke-linejoin:miter;stroke-miterlimit:10;"/></g><!--link catModule to db--><g class="link" data-entity-1="ent0010" data-entity-2="ent0013" data-link-type="dependency" data-source-line="33" id="lnk24"><path d="M674.43,208.8 C697.29,204.34 716.2127,200.6385 736.3327,196.7085" fill="none" id="catModule-to-db" style="stroke:#181818;stroke-width:1;"/><polygon fill="#181818" points="741.24,195.75,731.6401,193.5495,736.3327,196.7085,733.1737,201.4012,741.24,195.75" style="stroke:#181818;stroke-width:1;stroke-linejoin:miter;stroke-miterlimit:10;"/></g><!--link routeModule to db--><g class="link" data-entity-1="ent0011" data-entity-2="ent0013" data-link-type="dependency" data-source-line="34" id="lnk25"><path d="M677.41,163.22 C699.39,167.63 717.1873,171.1984 736.4673,175.0584" fill="none" id="routeModule-to-db" style="stroke:#181818;stroke-width:1;"/><polygon fill="#181818" points="741.37,176.04,733.3304,170.351,736.4673,175.0584,731.7599,178.1954,741.37,176.04" style="stroke:#181818;stroke-width:1;stroke-linejoin:miter;stroke-miterlimit:10;"/></g><!--link photoModule to db--><g class="link" data-entity-1="ent0012" data-entity-2="ent0013" data-link-type="dependency" data-source-line="35" id="lnk26"><path d="M672.25,87.62 C683.87,92.29 695.35,97.72 705.71,104 C731.73,119.75 752.9005,140.9432 768.9205,159.1832" fill="none" id="photoModule-to-db" style="stroke:#181818;stroke-width:1;"/><polygon fill="#181818" points="772.22,162.94,769.2863,153.5382,768.9205,159.1832,763.2755,158.8175,772.22,162.94" style="stroke:#181818;stroke-width:1;stroke-linejoin:miter;stroke-miterlimit:10;"/></g><?plantuml-src ZL9HIiD04FtFAPP-ALAzWI1IK6b5ZHVO9ciRRRiXsO8WGcj5HGiA_ea_WWUeRGErDV4AipToEZ5feAKqa0tpCk_Dp9kjYJF5b6IUKwagPZkUi9GZ6uRXSkk2LmJBmHjCO0G1XFf6js4CFVtCz3r-sWXqsThUQQcujMkQMmVcUevT6GmVIzPTsH0DXVnNvFUW3s7CdB9Q28GmqdVGop7kipft6dEyDyo_mSG9H31WU7pfHsnZZ604VUAvDMu9VuxvZioMVi2tWyMUADMJJRKWzHCYqXjGeG0x2_Hph5sLIiuJNc08F-X7c8TVcYA0YUuIWzjr7ECwwzq7IVRf3EUSEvIss3ptsGOhNBgUyFr5_fqKp5EsSxGVbt2T1TD6CDITQHjBN2f9kraJoybZSZn0CoBiTmJVHBUuMeNyapKzhKsshq3NjyaYffS3ewGwhU5V0AsrkU9bxgEtHz9N5K-OnqNAiyk6CRr6B9_V9flYkv66yVvdVscxQKYhIoC33mgopYNOp8u4oSwOCZDj6naP-eczfYe9a159e8p6F_G7?></g></svg>