<svg xmlns="http://www.w3.org/2000/svg" xmlns:xlink="http://www.w3.org/1999/xlink" contentStyleType="text/css" data-diagram-type="SEQUENCE" height="809px" preserveAspectRatio="none" style="width:1297px;height:809px;background:#FFFFFF;" version="1.1" viewBox="0 0 1297 809" width="1297px" zoomAndPan="magnify"><?plantuml 1.2026.5?><defs/><g><g><title>...-.........</title><rect fill="#FFFFFF" height="596.7891" style="stroke:#181818;stroke-width:1;" width="10" x="316.1089" y="112.4297"/></g><g><title>REST API</title><rect fill="#FFFFFF" height="145.6641" style="stroke:#181818;stroke-width:1;" width="10" x="685.4175" y="141.5625"/></g><g><title>REST API</title><rect fill="#FFFFFF" height="191.0625" style="stroke:#181818;stroke-width:1;" width="10" x="685.4175" y="417.7578"/></g><g><title>...... .........</title><rect fill="#FFFFFF" height="87.3984" style="stroke:#181818;stroke-width:1;" width="10" x="917.7773" y="170.6953"/></g><g><title>...... .........</title><rect fill="#FFFFFF" height="132.7969" style="stroke:#181818;stroke-width:1;" width="10" x="917.7773" y="446.8906"/></g><g><title>PostgreSQL</title><rect fill="#FFFFFF" height="29.1328" style="stroke:#181818;stroke-width:1;" width="10" x="1237.7222" y="199.8281"/></g><g><title>PostgreSQL</title><rect fill="#FFFFFF" height="29.1328" style="stroke:#181818;stroke-width:1;" width="10" x="1237.7222" y="521.4219"/></g><g class="participant-lifeline" data-entity-uid="part1" data-qualified-name="User" data-source-line="5" id="part1-lifeline"><g><title>............</title><rect fill="#000000" fill-opacity="0.00000" height="645.9219" width="8" x="55.5498" y="81.2969"/><line style="stroke:#181818;stroke-width:0.5;stroke-dasharray:5,5;" x1="59" x2="59" y1="81.2969" y2="727.2188"/></g></g><g class="participant-lifeline" data-entity-uid="part2" data-qualified-name="UI" data-source-line="7" id="part2-lifeline"><g><title>...-.........</title><rect fill="#000000" fill-opacity="0.00000" height="645.9219" width="8" x="317.1089" y="81.2969"/><line style="stroke:#181818;stroke-width:0.5;stroke-dasharray:5,5;" x1="320.5142" x2="320.5142" y1="81.2969" y2="727.2188"/></g></g><g class="participant-lifeline" data-entity-uid="part3" data-qualified-name="API" data-source-line="8" id="part3-lifeline"><g><title>REST API</title><rect fill="#000000" fill-opacity="0.00000" height="645.9219" width="8" x="686.4175" y="81.2969"/><line style="stroke:#181818;stroke-width:0.5;stroke-dasharray:5,5;" x1="689.4683" x2="689.4683" y1="81.2969" y2="727.2188"/></g></g><g class="participant-lifeline" data-entity-uid="part4" data-qualified-name="RouteService" data-source-line="9" id="part4-lifeline"><g><title>...... .........</title><rect fill="#000000" fill-opacity="0.00000" height="645.9219" width="8" x="918.7773" y="81.2969"/><line style="stroke:#181818;stroke-width:0.5;stroke-dasharray:5,5;" x1="922.1572" x2="922.1572" y1="81.2969" y2="727.2188"/></g></g><g class="participant-lifeline" data-entity-uid="part5" data-qualified-name="DB" data-source-line="10" id="part5-lifeline"><g><title>PostgreSQL</title><rect fill="#000000" fill-opacity="0.00000" height="645.9219" width="8" x="1238.7222" y="81.2969"/><line style="stroke:#181818;stroke-width:0.5;stroke-dasharray:5,5;" x1="1242.3457" x2="1242.3457" y1="81.2969" y2="727.2188"/></g></g><g class="participant participant-head" data-entity-uid="part1" data-qualified-name="User" data-source-line="5" id="part1-head"><text fill="#000000" font-family="sans-serif" font-size="14" lengthAdjust="spacing" textLength="103.0996" x="5" y="77.9951">Пользователь</text><ellipse cx="59.5498" cy="13.5" fill="#E2E2F0" rx="8" ry="8" style="stroke:#181818;stroke-width:0.5;"/><path d="M59.5498,21.5 L59.5498,48.5 M46.5498,29.5 L72.5498,29.5 M59.5498,48.5 L46.5498,63.5 M59.5498,48.5 L72.5498,63.5" fill="none" style="stroke:#181818;stroke-width:0.5;"/></g><g class="participant participant-tail" data-entity-uid="part1" data-qualified-name="User" data-source-line="5" id="part1-tail"><text fill="#000000" font-family="sans-serif" font-size="14" lengthAdjust="spacing" textLength="103.0996" x="5" y="739.2139">Пользователь</text><ellipse cx="59.5498" cy="751.0156" fill="#E2E2F0" rx="8" ry="8" style="stroke:#181818;stroke-width:0.5;"/><path d="M59.5498,759.0156 L59.5498,786.0156 M46.5498,767.0156 L72.5498,767.0156 M59.5498,786.0156 L46.5498,801.0156 M59.5498,786.0156 L72.5498,801.0156" fill="none" style="stroke:#181818;stroke-width:0.5;"/></g><g class="participant participant-head" data-entity-uid="part2" data-qualified-name="UI" data-source-line="7" id="part2-head"><rect fill="#E2E2F0" height="46.5938" rx="2.5" ry="2.5" style="stroke:#181818;stroke-width:0.5;" width="127.1895" x="257.5142" y="33.7031"/><text fill="#000000" font-family="sans-serif" font-size="14" lengthAdjust="spacing" textLength="113.1895" x="264.5142" y="53.6982">Веб-интерфейс</text><text fill="#000000" font-family="sans-serif" font-size="14" lengthAdjust="spacing" textLength="99.8799" x="271.1689" y="69.9951">(HTML/CSS/JS)</text></g><g class="participant participant-tail" data-entity-uid="part2" data-qualified-name="UI" data-source-line="7" id="part2-tail"><rect fill="#E2E2F0" height="46.5938" rx="2.5" ry="2.5" style="stroke:#181818;stroke-width:0.5;" width="127.1895" x="257.5142" y="726.2188"/><text fill="#000000" font-family="sans-serif" font-size="14" lengthAdjust="spacing" textLength="113.1895" x="264.5142" y="746.2139">Веб-интерфейс</text><text fill="#000000" font-family="sans-serif" font-size="14" lengthAdjust="spacing" textLength="99.8799" x="271.1689" y="762.5107">(HTML/CSS/JS)</text></g><g class="participant participant-head" data-entity-uid="part3" data-qualified-name="API" data-source-line="8" id="part3-head"><rect fill="#E2E2F0" height="46.5938" rx="2.5" ry="2.5" style="stroke:#181818;stroke-width:0.5;" width="79.8984" x="650.4683" y="33.7031"/><text fill="#000000" font-family="sans-serif" font-size="14" lengthAdjust="spacing" textLength="62.6104" x="659.1123" y="53.6982">REST API</text><text fill="#000000" font-family="sans-serif" font-size="14" lengthAdjust="spacing" textLength="65.8984" x="657.4683" y="69.9951">(Express)</text></g><g class="participant participant-tail" data-entity-uid="part3" data-qualified-name="API" data-source-line="8" id="part3-tail"><rect fill="#E2E2F0" height="46.5938" rx="2.5" ry="2.5" style="stroke:#181818;stroke-width:0.5;" width="79.8984" x="650.4683" y="726.2188"/><text fill="#000000" font-family="sans-serif" font-size="14" lengthAdjust="spacing" textLength="62.6104" x="659.1123" y="746.2139">REST API</text><text fill="#000000" font-family="sans-serif" font-size="14" lengthAdjust="spacing" textLength="65.8984" x="657.4683" y="762.5107">(Express)</text></g><g class="participant participant-head" data-entity-uid="part4" data-qualified-name="RouteService" data-source-line="9" id="part4-head"><rect fill="#E2E2F0" height="46.5938" rx="2.5" ry="2.5" style="stroke:#181818;stroke-width:0.5;" width="157.2402" x="844.1572" y="33.7031"/><text fill="#000000" font-family="sans-serif" font-size="14" lengthAdjust="spacing" textLength="143.2402" x="851.1572" y="53.6982">Модуль маршрутов</text><text fill="#000000" font-family="sans-serif" font-size="14" lengthAdjust="spacing" textLength="102.8193" x="871.3677" y="69.9951">(route service)</text></g><g class="participant participant-tail" data-entity-uid="part4" data-qualified-name="RouteService" data-source-line="9" id="part4-tail"><rect fill="#E2E2F0" height="46.5938" rx="2.5" ry="2.5" style="stroke:#181818;stroke-width:0.5;" width="157.2402" x="844.1572" y="726.2188"/><text fill="#000000" font-family="sans-serif" font-size="14" lengthAdjust="spacing" textLength="143.2402" x="851.1572" y="746.2139">Модуль маршрутов</text><text fill="#000000" font-family="sans-serif" font-size="14" lengthAdjust="spacing" textLength="102.8193" x="871.3677" y="762.5107">(route service)</text></g><g class="participant participant-head" data-entity-uid="part5" data-qualified-name="DB" data-source-line="10" id="part5-head"><text fill="#000000" font-family="sans-serif" font-size="14" lengthAdjust="spacing" textLength="80.7529" x="1199.3457" y="77.9951">PostgreSQL</text><path d="M1224.7222,29 C1224.7222,19 1242.7222,19 1242.7222,19 C1242.7222,19 1260.7222,19 1260.7222,29 L1260.7222,55 C1260.7222,65 1242.7222,65 1242.7222,65 C1242.7222,65 1224.7222,65 1224.7222,55 L1224.7222,29" fill="#E2E2F0" style="stroke:#181818;stroke-width:0.5;"/><path d="M1224.7222,29 C1224.7222,39 1242.7222,39 1242.7222,39 C1242.7222,39 1260.7222,39 1260.7222,29" fill="none" style="stroke:#181818;stroke-width:0.5;"/></g><g class="participant participant-tail" data-entity-uid="part5" data-qualified-name="DB" data-source-line="10" id="part5-tail"><text fill="#000000" font-family="sans-serif" font-size="14" lengthAdjust="spacing" textLength="80.7529" x="1199.3457" y="739.2139">PostgreSQL</text><path d="M1224.7222,752.5156 C1224.7222,742.5156 1242.7222,742.5156 1242.7222,742.5156 C1242.7222,742.5156 1260.7222,742.5156 1260.7222,752.5156 L1260.7222,778.5156 C1260.7222,788.5156 1242.7222,788.5156 1242.7222,788.5156 C1242.7222,788.5156 1224.7222,788.5156 1224.7222,778.5156 L1224.7222,752.5156" fill="#E2E2F0" style="stroke:#181818;stroke-width:0.5;"/><path d="M1224.7222,752.5156 C1224.7222,762.5156 1242.7222,762.5156 1242.7222,762.5156 C1242.7222,762.5156 1260.7222,762.5156 1260.7222,752.5156" fill="none" style="stroke:#181818;stroke-width:0.5;"/></g><g><title>...-.........</title><rect fill="#FFFFFF" height="596.7891" style="stroke:#181818;stroke-width:1;" width="10" x="316.1089" y="112.4297"/></g><g><title>REST API</title><rect fill="#FFFFFF" height="145.6641" style="stroke:#181818;stroke-width:1;" width="10" x="685.4175" y="141.5625"/></g><g><title>REST API</title><rect fill="#FFFFFF" height="191.0625" style="stroke:#181818;stroke-width:1;" width="10" x="685.4175" y="417.7578"/></g><g><title>...... .........</title><rect fill="#FFFFFF" height="87.3984" style="stroke:#181818;stroke-width:1;" width="10" x="917.7773" y="170.6953"/></g><g><title>...... .........</title><rect fill="#FFFFFF" height="132.7969" style="stroke:#181818;stroke-width:1;" width="10" x="917.7773" y="446.8906"/></g><g><title>PostgreSQL</title><rect fill="#FFFFFF" height="29.1328" style="stroke:#181818;stroke-width:1;" width="10" x="1237.7222" y="199.8281"/></g><g><title>PostgreSQL</title><rect fill="#FFFFFF" height="29.1328" style="stroke:#181818;stroke-width:1;" width="10" x="1237.7222" y="521.4219"/></g><g class="message" data-entity-1="part1" data-entity-2="part2" data-source-line="12" id="msg1"><polygon fill="#181818" points="304.1089,108.4297,314.1089,112.4297,304.1089,116.4297,308.1089,112.4297" style="stroke:#181818;stroke-width:1;stroke-linejoin:miter;stroke-miterlimit:10;"/><line style="stroke:#181818;stroke-width:1;" x1="59.5498" x2="310.1089" y1="112.4297" y2="112.4297"/><text fill="#000000" font-family="sans-serif" font-size="13" lengthAdjust="spacing" textLength="221.8696" x="76.8945" y="107.3638">Открытие раздела «Маршруты»</text></g><g class="message" data-entity-1="part2" data-entity-2="part3" data-source-line="15" id="msg2"><polygon fill="#181818" points="673.4175,137.5625,683.4175,141.5625,673.4175,145.5625,677.4175,141.5625" style="stroke:#181818;stroke-width:1;stroke-linejoin:miter;stroke-miterlimit:10;"/><line style="stroke:#181818;stroke-width:1;" x1="326.1089" x2="679.4175" y1="141.5625" y2="141.5625"/><text fill="#000000" font-family="sans-serif" font-size="13" lengthAdjust="spacing" textLength="76.1465" x="467.6899" y="136.4966">GET /routes</text></g><g class="message" data-entity-1="part3" data-entity-2="part4" data-source-line="18" id="msg3"><polygon fill="#181818" points="905.7773,166.6953,915.7773,170.6953,905.7773,174.6953,909.7773,170.6953" style="stroke:#181818;stroke-width:1;stroke-linejoin:miter;stroke-miterlimit:10;"/><line style="stroke:#181818;stroke-width:1;" x1="695.4175" x2="911.7773" y1="170.6953" y2="170.6953"/><text fill="#000000" font-family="sans-serif" font-size="13" lengthAdjust="spacing" textLength="167.8701" x="722.6624" y="165.6294">Получить все маршруты</text></g><g class="message" data-entity-1="part4" data-entity-2="part5" data-source-line="21" id="msg4"><polygon fill="#181818" points="1225.7222,195.8281,1235.7222,199.8281,1225.7222,203.8281,1229.7222,199.8281" style="stroke:#181818;stroke-width:1;stroke-linejoin:miter;stroke-miterlimit:10;"/><line style="stroke:#181818;stroke-width:1;" x1="927.7773" x2="1231.7222" y1="199.8281" y2="199.8281"/><text fill="#000000" font-family="sans-serif" font-size="13" lengthAdjust="spacing" textLength="290.9448" x="937.2773" y="194.7622">SELECT * FROM routes WHERE visible = true</text></g><g class="message" data-entity-1="part5" data-entity-2="part4" data-source-line="23" id="msg5"><polygon fill="#181818" points="938.7773,224.9609,928.7773,228.9609,938.7773,232.9609,934.7773,228.9609" style="stroke:#181818;stroke-width:1;stroke-linejoin:miter;stroke-miterlimit:10;"/><line style="stroke:#181818;stroke-width:1;stroke-dasharray:2,2;" x1="932.7773" x2="1241.7222" y1="228.9609" y2="228.9609"/><text fill="#000000" font-family="sans-serif" font-size="13" lengthAdjust="spacing" textLength="210.5581" x="979.9707" y="223.895">Список маршрутов (без точек)</text></g><g class="message" data-entity-1="part4" data-entity-2="part3" data-source-line="26" id="msg6"><polygon fill="#181818" points="706.4175,254.0938,696.4175,258.0938,706.4175,262.0938,702.4175,258.0938" style="stroke:#181818;stroke-width:1;stroke-linejoin:miter;stroke-miterlimit:10;"/><line style="stroke:#181818;stroke-width:1;stroke-dasharray:2,2;" x1="700.4175" x2="921.7773" y1="258.0938" y2="258.0938"/><text fill="#000000" font-family="sans-serif" font-size="13" lengthAdjust="spacing" textLength="134.5703" x="741.8123" y="253.0278">Данные маршрутов</text></g><g class="message" data-entity-1="part3" data-entity-2="part2" data-source-line="28" id="msg7"><polygon fill="#181818" points="337.1089,283.2266,327.1089,287.2266,337.1089,291.2266,333.1089,287.2266" style="stroke:#181818;stroke-width:1;stroke-linejoin:miter;stroke-miterlimit:10;"/><line style="stroke:#181818;stroke-width:1;stroke-dasharray:2,2;" x1="331.1089" x2="689.4175" y1="287.2266" y2="287.2266"/><text fill="#000000" font-family="sans-serif" font-size="13" lengthAdjust="spacing" textLength="193.4512" x="411.5376" y="282.1606">JSON со списком маршрутов</text></g><g class="message" data-entity-1="part2" data-entity-2="part1" data-source-line="30" id="msg8"><polygon fill="#181818" points="70.5498,312.3594,60.5498,316.3594,70.5498,320.3594,66.5498,316.3594" style="stroke:#181818;stroke-width:1;stroke-linejoin:miter;stroke-miterlimit:10;"/><line style="stroke:#181818;stroke-width:1;stroke-dasharray:2,2;" x1="64.5498" x2="315.1089" y1="316.3594" y2="316.3594"/><text fill="#000000" font-family="sans-serif" font-size="13" lengthAdjust="spacing" textLength="227.0303" x="74.3142" y="311.2935">Отображение списка маршрутов</text></g><rect fill="#EEEEEE" height="3" style="stroke:#EEEEEE;stroke-width:1;" width="1291.0986" x="0" y="344.9258"/><line style="stroke:#000000;stroke-width:1;" x1="0" x2="1291.0986" y1="344.9258" y2="344.9258"/><line style="stroke:#000000;stroke-width:1;" x1="0" x2="1291.0986" y1="347.9258" y2="347.9258"/><rect fill="#EEEEEE" height="23.1328" style="stroke:#000000;stroke-width:2;" width="144.1016" x="573.4985" y="334.3594"/><text fill="#000000" font-family="sans-serif" font-size="13" font-weight="700" lengthAdjust="spacing" textLength="130.1016" x="579.4985" y="350.4263">Выбор маршрута</text><g class="message" data-entity-1="part1" data-entity-2="part2" data-source-line="34" id="msg9"><polygon fill="#181818" points="304.1089,384.625,314.1089,388.625,304.1089,392.625,308.1089,388.625" style="stroke:#181818;stroke-width:1;stroke-linejoin:miter;stroke-miterlimit:10;"/><line style="stroke:#181818;stroke-width:1;" x1="59.5498" x2="310.1089" y1="388.625" y2="388.625"/><text fill="#000000" font-family="sans-serif" font-size="13" lengthAdjust="spacing" textLength="116.9429" x="129.3579" y="383.5591">Выбор маршрута</text></g><g class="message" data-entity-1="part2" data-entity-2="part3" data-source-line="35" id="msg10"><polygon fill="#181818" points="673.4175,413.7578,683.4175,417.7578,673.4175,421.7578,677.4175,417.7578" style="stroke:#181818;stroke-width:1;stroke-linejoin:miter;stroke-miterlimit:10;"/><line style="stroke:#181818;stroke-width:1;" x1="326.1089" x2="679.4175" y1="417.7578" y2="417.7578"/><text fill="#000000" font-family="sans-serif" font-size="13" lengthAdjust="spacing" textLength="108.9321" x="451.2971" y="412.6919">GET /routes/{id}</text></g><g class="message" data-entity-1="part3" data-entity-2="part4" data-source-line="38" id="msg11"><polygon fill="#181818" points="905.7773,442.8906,915.7773,446.8906,905.7773,450.8906,909.7773,446.8906" style="stroke:#181818;stroke-width:1;stroke-linejoin:miter;stroke-miterlimit:10;"/><line style="stroke:#181818;stroke-width:1;" x1="695.4175" x2="911.7773" y1="446.8906" y2="446.8906"/><text fill="#000000" font-family="sans-serif" font-size="13" lengthAdjust="spacing" textLength="203.3599" x="704.9175" y="441.8247">Получить маршрут с точками</text></g><g class="message" data-entity-1="part4" data-entity-2="part5" data-source-line="41" id="msg12"><polygon fill="#181818" points="1225.7222,517.4219,1235.7222,521.4219,1225.7222,525.4219,1229.7222,521.4219" style="stroke:#181818;stroke-width:1;stroke-linejoin:miter;stroke-miterlimit:10;"/><line style="stroke:#181818;stroke-width:1;" x1="927.7773" x2="1231.7222" y1="521.4219" y2="521.4219"/><text fill="#000000" font-family="sans-serif" font-size="13" lengthAdjust="spacing" textLength="156.6792" x="1004.4102" y="470.9575">SELECT * FROM routes r</text><text fill="#000000" font-family="sans-serif" font-size="13" lengthAdjust="spacing" textLength="206.1719" x="979.6638" y="486.0903">LEFT JOIN route_points rp ON ...</text><text fill="#000000" font-family="sans-serif" font-size="13" lengthAdjust="spacing" textLength="161.5161" x="1001.9917" y="501.2231">LEFT JOIN places p ON ...</text><text fill="#000000" font-family="sans-serif" font-size="13" lengthAdjust="spacing" textLength="121.126" x="1022.1868" y="516.356">WHERE r.id = {id}</text></g><g class="message" data-entity-1="part5" data-entity-2="part4" data-source-line="43" id="msg13"><polygon fill="#181818" points="938.7773,546.5547,928.7773,550.5547,938.7773,554.5547,934.7773,550.5547" style="stroke:#181818;stroke-width:1;stroke-linejoin:miter;stroke-miterlimit:10;"/><line style="stroke:#181818;stroke-width:1;stroke-dasharray:2,2;" x1="932.7773" x2="1241.7222" y1="550.5547" y2="550.5547"/><text fill="#000000" font-family="sans-serif" font-size="13" lengthAdjust="spacing" textLength="285.3843" x="942.5576" y="545.4888">Маршрут + агрегированные точки (JSON)</text></g><g class="message" data-entity-1="part4" data-entity-2="part3" data-source-line="46" id="msg14"><polygon fill="#181818" points="706.4175,575.6875,696.4175,579.6875,706.4175,583.6875,702.4175,579.6875" style="stroke:#181818;stroke-width:1;stroke-linejoin:miter;stroke-miterlimit:10;"/><line style="stroke:#181818;stroke-width:1;stroke-dasharray:2,2;" x1="700.4175" x2="921.7773" y1="579.6875" y2="579.6875"/><text fill="#000000" font-family="sans-serif" font-size="13" lengthAdjust="spacing" textLength="182.6855" x="717.7546" y="574.6216">Полные данные маршрута</text></g><g class="message" data-entity-1="part3" data-entity-2="part2" data-source-line="48" id="msg15"><polygon fill="#181818" points="337.1089,604.8203,327.1089,608.8203,337.1089,612.8203,333.1089,608.8203" style="stroke:#181818;stroke-width:1;stroke-linejoin:miter;stroke-miterlimit:10;"/><line style="stroke:#181818;stroke-width:1;stroke-dasharray:2,2;" x1="331.1089" x2="689.4175" y1="608.8203" y2="608.8203"/><text fill="#000000" font-family="sans-serif" font-size="13" lengthAdjust="spacing" textLength="204.2866" x="406.1199" y="603.7544">JSON (маршрут, точки, места)</text></g><g class="message" data-entity-1="part2" data-entity-2="part2" data-source-line="51" id="msg16"><line style="stroke:#181818;stroke-width:1;" x1="326.1089" x2="368.1089" y1="637.9531" y2="637.9531"/><line style="stroke:#181818;stroke-width:1;" x1="368.1089" x2="368.1089" y1="637.9531" y2="650.9531"/><line style="stroke:#181818;stroke-width:1;" x1="327.1089" x2="368.1089" y1="650.9531" y2="650.9531"/><polygon fill="#181818" points="337.1089,646.9531,327.1089,650.9531,337.1089,654.9531,333.1089,650.9531" style="stroke:#181818;stroke-width:1;stroke-linejoin:miter;stroke-miterlimit:10;"/><text fill="#000000" font-family="sans-serif" font-size="13" lengthAdjust="spacing" textLength="335.3086" x="333.1089" y="632.8872">Визуализация маршрута на карте (Yandex Maps)</text></g><g class="message" data-entity-1="part2" data-entity-2="part1" data-source-line="52" id="msg17"><polygon fill="#181818" points="70.5498,676.0859,60.5498,680.0859,70.5498,684.0859,66.5498,680.0859" style="stroke:#181818;stroke-width:1;stroke-linejoin:miter;stroke-miterlimit:10;"/><line style="stroke:#181818;stroke-width:1;stroke-dasharray:2,2;" x1="64.5498" x2="315.1089" y1="680.0859" y2="680.0859"/><text fill="#000000" font-family="sans-serif" font-size="13" lengthAdjust="spacing" textLength="232.5591" x="71.5498" y="675.02">Отображение маршрута на карте</text></g><g class="message" data-entity-1="part2" data-entity-2="part1" data-source-line="53" id="msg18"><polygon fill="#181818" points="70.5498,705.2188,60.5498,709.2188,70.5498,713.2188,66.5498,709.2188" style="stroke:#181818;stroke-width:1;stroke-linejoin:miter;stroke-miterlimit:10;"/><line style="stroke:#181818;stroke-width:1;stroke-dasharray:2,2;" x1="64.5498" x2="320.1089" y1="709.2188" y2="709.2188"/><text fill="#000000" font-family="sans-serif" font-size="13" lengthAdjust="spacing" textLength="219.3369" x="80.6609" y="704.1528">Отображение описания и точек</text></g><?plantuml-src fLJBRjD05DtxAwwwIg1DzaX1wiEbgPAsnAaGKYKqJOPW4MpZSHyIGae80gGW8LKi4OWr6wTjQ4WVIFs2yHznnix3JXkrmCAlE_UUEUVUun7FJSjXBdj1uXchsdkcLQEdh2wu9iOh_EKEjogyo8LWDJvVDsiMLRZbSJUMvNBXs9OOPYtmkhqtxxhs7ddk3jSqLl5ibsRaDtaXJuEFyWJFG-a7RsHNVSyG4xGf0Aa1ppChfiCi3_a7ME_CoPuyLwb18tYBmA-WkMMbLih5GdRHCBAhHZggpoUBIxfHflcDF7BrVGSCHPI7qCGkNy3cE6Wf9YJFGAiHVC3LmfwWYNhNtl4uMk7kcXKUePHKo8WYMfLvR9i9JZCRjl1gBZSU5iAifGLDKxfexZxuqJsINm7Q1tWRpvxiKj2GFjfnh1eXVRhy0JOn0a7xybHrpznbO0296c001X50Uw2NAHkI4-CafKzJwqYBirIxH_rl1Uzb3zXGUnWqGI8fEcYFmH8ojGGSu9SM06he1NsnJ7TekRHUf8WDFLhHIphjciBShdFAHJOOeQ8jA9sxXk1t-HlKcg3PlsOKb98TDEg4r2T4T6K_hLLv77U2uwXLyZFwV0uVjQ_eLSXnb8Jci973wQqQwskasAbRHBIFwhCR0DL4DWSmoWm36rp8JZZzdz1n7fbXZEfVXwdbSYGF8A43-Ot933-NctJRzDnfFig-Cgkl_z5CYIqWPZWcgC5Qx_zTvMvP1NsvJAlh-RKeziInJSl3YaCOJIQJYMSuTLP1rNWfSgMRCQkmP5BeT4ic_aUwIn1pXBbrvH5qDwA3REIiaU8UfPHRRctFi9b3UnvFzwh_5qvD9MjdO-nc5MutQ2h4zAHN1zuOM0ZEFC7Xw8CUtW3u3he_NU55O8nRFupYiARKOsPL-JuLcIFIj_F_JPYtHBaO_4MgYI7LNkp0qE9gD_D_0000?></g></svg>